<?xml version="1.0" encoding="UTF-8"?>
<svg xmlns="http://www.w3.org/2000/svg" 
     fill="none" 
     viewBox="0 0 24 24" 
     stroke="currentColor"
     stroke-width="1.5"
     aria-hidden="true" 
     role="img">
    <style>
        @keyframes data-flow {
            0% { stroke-dashoffset: 20; }
            100% { stroke-dashoffset: 0; }
        }
        @keyframes gear-spin {
            0% { transform: rotate(0deg); }
            100% { transform: rotate(360deg); }
        }
        .data-path {
            stroke-dasharray: 20;
            animation: data-flow 2s linear infinite;
        }
        .gear {
            transform-origin: center;
            animation: gear-spin 8s linear infinite;
        }
    </style>

    <!-- Database -->
    <path stroke-linecap="round" 
          stroke-linejoin="round" 
          d="M4 6c0-1.1 3.6-2 8-2s8 .9 8 2M4 6v12c0 1.1 3.6 2 8 2s8-.9 8-2V6" />
    <path stroke-linecap="round" 
          stroke-linejoin="round" 
          d="M4 12c0 1.1 3.6 2 8 2s8-.9 8-2" />
    
    <!-- Flusso dati -->
    <path class="data-path"
          stroke-linecap="round" 
          stroke-linejoin="round" 
          d="M8 10c2.5-1 5.5-1 8 0" />
    
    <!-- Ingranaggio -->
    <g class="gear">
        <path stroke-linecap="round" 
              stroke-linejoin="round" 
              d="M19 8.5a2.5 2.5 0 110 5 2.5 2.5 0 010-5z" />
        <path stroke-linecap="round" 
              stroke-linejoin="round" 
              d="M19 7v-1 M21 8.5h1 M19 12v1 M17 8.5h-1" />
    </g>
</svg> 