<?xml version="1.0" encoding="UTF-8"?>
<svg xmlns="http://www.w3.org/2000/svg" 
     fill="none" 
     viewBox="0 0 24 24" 
     stroke="currentColor"
     stroke-width="1.5"
     aria-hidden="true" 
     role="img">
    <!-- Scudo -->
    <path stroke-linecap="round" 
          stroke-linejoin="round" 
          d="M12 3c-1.5 0-8 1.5-8 1.5v7c0 4.5 3 8.5 8 10.5 5-2 8-6 8-10.5v-7S13.5 3 12 3z" />
    
    <!-- Lucchetto -->
    <path stroke-linecap="round" 
          stroke-linejoin="round" 
          d="M11 12a1 1 0 011-1h0a1 1 0 011 1v2a1 1 0 01-1 1h0a1 1 0 01-1-1v-2z" />
    <path stroke-linecap="round" 
          stroke-linejoin="round" 
          d="M9 11v-1a3 3 0 116 0v1" />
</svg> 