<?xml version="1.0" encoding="UTF-8"?>
<svg xmlns="http://www.w3.org/2000/svg" 
     fill="none" 
     viewBox="0 0 24 24" 
     stroke="currentColor"
     stroke-width="1.5"
     aria-hidden="true" 
     role="img">
    <style>
        @keyframes data-flow {
            0% { stroke-dashoffset: 30; }
            100% { stroke-dashoffset: 0; }
        }
        @keyframes gear-spin {
            0% { transform: rotate(0deg); }
            100% { transform: rotate(360deg); }
        }
        @keyframes database-pulse {
            0%, 100% { transform: translateY(0); }
            50% { transform: translateY(-1px); }
        }
        .data-path {
            stroke-dasharray: 30;
            animation: data-flow 2s linear infinite;
        }
        .gear {
            transform-origin: center;
            animation: gear-spin 8s linear infinite;
        }
        .database {
            animation: database-pulse 2s ease-in-out infinite;
        }
    </style>

    <!-- Database -->
    <g class="database">
        <path stroke-linecap="round" 
              stroke-linejoin="round" 
              d="M4 6c0-1.1 3.6-2 8-2s8 .9 8 2M4 6v12c0 1.1 3.6 2 8 2s8-.9 8-2V6" />
        <path stroke-linecap="round" 
              stroke-linejoin="round" 
              d="M4 12c0 1.1 3.6 2 8 2s8-.9 8-2" />
    </g>
    
    <!-- Flusso dati -->
    <path class="data-path"
          stroke-linecap="round" 
          stroke-linejoin="round" 
          d="M8 10c2.5-1 5.5-1 8 0" />
    
    <!-- Ingranaggio -->
    <g class="gear" transform="translate(19, 4)">
        <circle cx="0" cy="0" r="2" />
        <path stroke-linecap="round" 
              stroke-linejoin="round" 
              d="M0 -3v1 M2.1 -2.1l-.7.7 M3 0h-1 M2.1 2.1l-.7-.7 M0 3v-1 M-2.1 2.1l.7-.7 M-3 0h1 M-2.1 -2.1l.7.7" />
    </g>
</svg> 